<?xml version="1.0" standalone="no"?>
<!DOCTYPE svg PUBLIC "-//W3C//DTD SVG 20010904//EN"
 "http://www.w3.org/TR/2001/REC-SVG-20010904/DTD/svg10.dtd">
<svg version="1.0" xmlns="http://www.w3.org/2000/svg"
 width="87.000000pt" height="99.000000pt" viewBox="0 0 87.000000 99.000000"
 preserveAspectRatio="xMidYMid meet">

<g transform="translate(0.000000,99.000000) scale(0.100000,-0.100000)"
fill="#000000" stroke="none">
<path d="M345 927 c-27 -13 -56 -31 -64 -40 -7 -10 -24 -17 -37 -17 -86 0
-123 -98 -57 -150 14 -11 37 -20 51 -20 23 0 20 3 -18 23 -39 19 -45 26 -48
58 -3 30 2 41 25 59 17 14 37 20 54 18 17 -3 30 2 37 12 17 28 98 60 151 60
38 0 56 -6 78 -24 25 -22 26 -26 14 -52 -12 -28 -12 -28 6 -11 25 22 60 22
100 -3 40 -24 55 -52 51 -93 -2 -27 -10 -36 -48 -54 -45 -22 -45 -22 -14 -23
41 0 84 42 84 83 0 60 -64 127 -122 127 -12 0 -37 14 -55 32 -45 43 -116 49
-188 15z"/>
<path d="M463 753 c-35 -37 -77 -43 -128 -18 l-30 15 24 -20 c34 -30 101 -27
139 5 26 22 34 24 55 14 18 -8 30 -8 43 0 17 9 16 10 -10 11 -16 0 -37 6 -45
13 -14 11 -21 8 -48 -20z"/>
<path d="M590 745 c-7 -8 -18 -32 -25 -52 l-13 -38 -89 -1 c-48 -1 -98 -5
-110 -10 -15 -6 15 -8 86 -6 103 4 108 3 114 -17 5 -20 1 -21 -61 -22 -37 0
-90 -4 -118 -8 l-52 -7 -5 35 c-5 40 -35 117 -42 110 -2 -3 2 -23 10 -44 8
-22 14 -59 15 -81 l0 -41 43 8 c23 4 85 8 137 9 l95 0 2 55 c1 30 9 70 17 90
16 38 15 43 -4 20z"/>
<path d="M290 482 c0 -35 86 -55 131 -32 20 11 25 35 10 44 -5 3 -31 -1 -57
-9 -63 -19 -78 -19 -70 0 3 8 1 15 -4 15 -6 0 -10 -8 -10 -18z"/>
<path d="M453 484 c-15 -41 84 -60 127 -26 23 18 21 42 -3 42 -7 0 -6 -4 3
-10 29 -18 -18 -23 -67 -6 -57 19 -52 19 -60 0z"/>
<path d="M284 385 c-11 -28 6 -63 42 -86 l37 -22 -47 -24 c-43 -22 -61 -37
-33 -28 6 2 70 22 142 44 153 47 171 57 161 94 -3 15 -10 27 -15 27 -5 0 -43
-21 -86 -46 l-77 -47 -52 52 c-56 55 -64 59 -72 36z"/>
<path d="M175 310 c-11 -4 -33 -13 -49 -19 -16 -6 -27 -14 -24 -16 3 -3 29 6
59 19 49 23 61 36 14 16z"/>
<path d="M711 291 c20 -9 45 -23 55 -31 18 -14 18 -14 4 4 -8 11 -29 25 -47
33 -46 19 -55 15 -12 -6z"/>
<path d="M263 135 c0 -38 2 -53 4 -32 2 20 2 52 0 70 -2 17 -4 1 -4 -38z"/>
<path d="M292 178 c7 -19 38 -22 38 -4 0 10 -9 16 -21 16 -12 0 -19 -5 -17
-12z"/>
<path d="M540 175 c0 -10 7 -15 18 -13 21 4 19 22 -2 26 -10 2 -16 -3 -16 -13z"/>
<path d="M297 94 c-13 -13 -7 -24 14 -24 11 0 19 5 17 12 -5 14 -22 21 -31 12z"/>
<path d="M540 86 c0 -10 9 -16 21 -16 24 0 21 23 -4 28 -10 2 -17 -3 -17 -12z"/>
</g>
</svg>
